<svg xmlns="http://www.w3.org/2000/svg" width="112" height="160" viewBox="0 0 112 160">
<defs>

    <filter id="soft-shadow" x="-35%" y="-35%" width="170%" height="190%">
      <feDropShadow dx="0" dy="8" stdDeviation="7" flood-color="#18313a" flood-opacity=".30"/>
    </filter>
    <filter id="small-shadow" x="-30%" y="-30%" width="160%" height="180%">
      <feDropShadow dx="0" dy="4" stdDeviation="3" flood-color="#17323c" flood-opacity=".26"/>
    </filter>
    <filter id="paper-grain" x="-10%" y="-10%" width="120%" height="120%">
      <feTurbulence type="fractalNoise" baseFrequency=".72" numOctaves="2" seed="103" result="noise"/>
      <feColorMatrix in="noise" type="matrix" values="1 0 0 0 0  0 1 0 0 0  0 0 1 0 0  0 0 0 .13 0" result="soft-noise"/>
      <feBlend in="SourceGraphic" in2="soft-noise" mode="soft-light"/>
    </filter>
    <filter id="leaf-texture" x="-20%" y="-20%" width="140%" height="140%">
      <feTurbulence type="fractalNoise" baseFrequency=".045" numOctaves="3" seed="110" result="noise"/>
      <feDisplacementMap in="SourceGraphic" in2="noise" scale="3.5" xChannelSelector="R" yChannelSelector="G"/>
    </filter>
    <linearGradient id="warm-wall" x1="0" y1="0" x2="0" y2="1">
      <stop stop-color="#fff4d8"/>
      <stop offset=".56" stop-color="#ead5aa"/>
      <stop offset="1" stop-color="#c8a879"/>
    </linearGradient>
    <linearGradient id="cool-wall" x1="0" y1="0" x2="0" y2="1">
      <stop stop-color="#eef2e8"/>
      <stop offset=".58" stop-color="#cdd8cd"/>
      <stop offset="1" stop-color="#9db0a4"/>
    </linearGradient>
    <linearGradient id="wood" x1="0" y1="0" x2="1" y2="1">
      <stop stop-color="#b9824f"/>
      <stop offset=".5" stop-color="#865435"/>
      <stop offset="1" stop-color="#553724"/>
    </linearGradient>
    <linearGradient id="glass" x1="0" y1="0" x2="1" y2="1">
      <stop stop-color="#d4f1f2"/>
      <stop offset=".42" stop-color="#9bc8cc"/>
      <stop offset="1" stop-color="#527e8d"/>
    </linearGradient>
    <linearGradient id="leaf" x1="0" y1="0" x2="1" y2="1">
      <stop stop-color="#9ac968"/>
      <stop offset=".45" stop-color="#57924d"/>
      <stop offset="1" stop-color="#2e6140"/>
    </linearGradient>
    <linearGradient id="leaf-dark" x1="0" y1="0" x2="1" y2="1">
      <stop stop-color="#5f9b4f"/>
      <stop offset="1" stop-color="#244f38"/>
    </linearGradient>
    <linearGradient id="metal" x1="0" y1="0" x2="1" y2="1">
      <stop stop-color="#e9eff0"/>
      <stop offset=".45" stop-color="#9baeb2"/>
      <stop offset="1" stop-color="#586d73"/>
    </linearGradient>
  
      <linearGradient id="skin" x1="0" y1="0" x2="0" y2="1"><stop stop-color="#ffdfbd"/><stop offset="1" stop-color="#dfa177"/></linearGradient>
      <linearGradient id="shirt" x1="0" y1="0" x2="0" y2="1"><stop stop-color="#fffdf0"/><stop offset="1" stop-color="#ead9a7"/></linearGradient>
      <linearGradient id="shorts" x1="0" y1="0" x2="0" y2="1"><stop stop-color="#3e7396"/><stop offset="1" stop-color="#243e58"/></linearGradient>
</defs>
<g filter="url(#soft-shadow)">
    <ellipse cx="56" cy="150" rx="31" ry="7" fill="#17353d" opacity=".2"/>
    <path d="M42 117 L38 143" stroke="url(#skin)" stroke-width="12" stroke-linecap="round"/>
    <path d="M69 112 L75 143" stroke="url(#skin)" stroke-width="12" stroke-linecap="round"/>
    <path d="M31 143 Q39 137 50 144 L49 151 H27Z" fill="#f3f0e8" stroke="#31404a" stroke-width="3"/>
    <path d="M65 144 Q74 137 86 143 L88 151 H62Z" fill="#f3f0e8" stroke="#31404a" stroke-width="3"/>
    <path d="M34 101 Q56 92 78 101 L75 124 L60 123 L56 105 L52 123 L36 124Z" fill="url(#shorts)" stroke="#243f58" stroke-width="3"/>
    <path d="M35 78 L26 104" stroke="url(#skin)" stroke-width="12" stroke-linecap="round"/>
    <path d="M77 78 L87 104" stroke="url(#skin)" stroke-width="12" stroke-linecap="round"/>
    <path d="M32 77 Q56 67 80 77 L78 107 Q56 116 34 107Z" fill="url(#shirt)" stroke="#7f4e3c" stroke-width="3"/>
    <path d="M35 82 Q56 91 77 82" fill="none" stroke="#e05e4f" stroke-width="6" opacity=".92"/>
    <path d="M50 78 Q56 84 62 78" fill="none" stroke="#ffffff" stroke-width="4" opacity=".75"/>
    <circle cx="56" cy="55" r="21" fill="url(#skin)" stroke="#6f4835" stroke-width="3"/><path d="M35 52 Q56 30 77 52 V68 Q56 83 35 68Z" fill="#30241f"/>
       <path d="M39 69 Q56 79 73 69" fill="none" stroke="#5b3a2c" stroke-width="4"/>
    <path d="M44 76 H68" stroke="#e05e4f" stroke-width="5"/>
    <path d="M78 91 Q91 96 94 111" fill="none" stroke="#6e4d36" stroke-width="4" opacity=".5"/>
  </g>
</svg>